<?xml version="1.0" standalone="no"?><!DOCTYPE svg PUBLIC "-//W3C//DTD SVG 1.1//EN" "http://www.w3.org/Graphics/SVG/1.1/DTD/svg11.dtd"><svg t="1650880344653" class="icon" viewBox="0 0 1024 1024" version="1.1" xmlns="http://www.w3.org/2000/svg" p-id="6013" xmlns:xlink="http://www.w3.org/1999/xlink" width="200" height="200"><defs><style type="text/css">@font-face { font-family: feedback-iconfont; src: url("//at.alicdn.com/t/font_1031158_u69w8yhxdu.woff2?t=1630033759944") format("woff2"), url("//at.alicdn.com/t/font_1031158_u69w8yhxdu.woff?t=1630033759944") format("woff"), url("//at.alicdn.com/t/font_1031158_u69w8yhxdu.ttf?t=1630033759944") format("truetype"); }
</style></defs><path d="M1013.497436 128.183795c3.150769 7.010462 5.645128 15.202462 7.614359 24.576 1.916718 9.347282 2.888205 19.08841 2.888205 29.249641 0 10.134974-1.942974 20.269949-5.828923 30.404923a92.895179 92.895179 0 0 1-18.642051 29.249641c-9.294769 9.373538-17.644308 17.565538-25.022359 24.576-7.378051 7.010462-13.784615 13.259487-19.219693 18.720821-6.222769 6.249026-12.025436 11.710359-17.460512 16.384l-217.796924-218.794667c9.321026-8.585846 20.374974-18.904615 33.188103-31.008821 12.813128-12.077949 23.499487-21.635282 32.032821-28.672a102.137436 102.137436 0 0 1 33.765743-18.116923 105.813333 105.813333 0 0 1 34.369641-4.699897c11.237744 0.393846 22.107897 2.153026 32.610462 5.251282 10.476308 3.150769 19.587282 6.642872 27.359179 10.555077 16.305231 8.585846 34.369641 23.578256 54.166975 45.029743 19.797333 21.451487 35.131077 43.874462 46.00123 67.29518zM106.285949 699.155692c4.647385-4.673641 15.517538-15.806359 32.610461-33.345641 17.066667-17.565538 38.413128-39.200821 64.065641-64.932102l84.992-85.412103 94.339282-94.785641 250.407385-251.53641 217.796923 219.949949-250.407385 251.53641-93.157743 94.785641a5848.457846 5848.457846 0 0 0-83.862975 83.652923c-24.838564 25.363692-45.42359 46.211282-61.72882 62.595282-16.305231 16.384-25.993846 25.731282-29.118359 28.094359-7.771897 7.010462-16.699077 14.441026-26.781538 22.239179a145.565538 145.565538 0 0 1-31.45518 18.720821c-10.870154 5.435077-26.781538 12.077949-47.76041 19.876103-20.952615 7.798154-42.876718 15.412513-65.798564 22.81682-22.89559 7.404308-44.635897 13.837128-65.220923 19.298462-20.558769 5.461333-35.892513 8.979692-46.001231 10.52882-20.952615 2.363077-34.921026-0.787692-41.931487-9.347282-6.984205-8.585846-8.927179-23.026872-5.802667-43.29682 1.549128-10.922667 5.251282-26.702769 11.053949-47.392821 5.828923-20.663795 12.025436-42.115282 18.642051-64.328205 6.590359-22.239179 12.996923-42.719179 19.219692-61.44 6.196513-18.720821 11.237744-31.586462 15.123693-38.596923 4.673641-10.922667 9.898667-20.873846 15.727589-29.853539 5.828923-8.979692 14.178462-18.904615 25.048616-29.827282z" fill="#BBBBBC" p-id="6014"></path></svg>